<?xml version="1.0" encoding="utf-8"?>
<!-- Generator: Adobe Illustrator 22.0.1, SVG Export Plug-In . SVG Version: 6.00 Build 0)  -->
<svg version="1.1" id="Layer_1" xmlns="http://www.w3.org/2000/svg" xmlns:xlink="http://www.w3.org/1999/xlink" x="0px" y="0px"
	 viewBox="0 0 28 18" style="enable-background:new 0 0 28 18;" xml:space="preserve">
<style type="text/css">
	.st0{fill:none;}
	.st1{fill:#46C3CF;}
</style>
<g id="Group_476" transform="translate(4179 87)">
	<g id="Ellipse_539" transform="translate(376 16)">
		<g>
			<circle class="st0" cx="-4531" cy="-99" r="4"/>
		</g>
		<g>
			<path class="st1" d="M-4531-95c-2.2,0-4-1.8-4-4s1.8-4,4-4s4,1.8,4,4S-4528.8-95-4531-95z M-4531-102c-1.7,0-3,1.3-3,3s1.3,3,3,3
				s3-1.3,3-3S-4529.3-102-4531-102z"/>
		</g>
	</g>
	<g id="Ellipse_904" transform="translate(366 16)">
		<g>
			<circle cx="-4531" cy="-99" r="4"/>
		</g>
		<g>
			<path class="st1" d="M-4531-95c-2.2,0-4-1.8-4-4s1.8-4,4-4c2.2,0,4,1.8,4,4S-4528.8-95-4531-95z M-4531-102c-1.7,0-3,1.3-3,3
				s1.3,3,3,3s3-1.3,3-3S-4529.3-102-4531-102z"/>
		</g>
	</g>
	<g id="Ellipse_908" transform="translate(356 16)">
		<g>
			<circle cx="-4531" cy="-99" r="4"/>
		</g>
		<g>
			<path class="st1" d="M-4531-95c-2.2,0-4-1.8-4-4s1.8-4,4-4s4,1.8,4,4S-4528.8-95-4531-95z M-4531-102c-1.7,0-3,1.3-3,3s1.3,3,3,3
				s3-1.3,3-3S-4529.3-102-4531-102z"/>
		</g>
	</g>
	<g id="Ellipse_539-2" transform="translate(376 26)">
		<g>
			<circle class="st0" cx="-4531" cy="-99" r="4"/>
		</g>
		<g>
			<path class="st1" d="M-4531-95c-2.2,0-4-1.8-4-4s1.8-4,4-4s4,1.8,4,4S-4528.8-95-4531-95z M-4531-102c-1.7,0-3,1.3-3,3s1.3,3,3,3
				s3-1.3,3-3S-4529.3-102-4531-102z"/>
		</g>
	</g>
	<g id="Ellipse_904-2" transform="translate(366 26)">
		<g>
			<circle class="st0" cx="-4531" cy="-99" r="4"/>
		</g>
		<g>
			<path class="st1" d="M-4531-95c-2.2,0-4-1.8-4-4s1.8-4,4-4c2.2,0,4,1.8,4,4S-4528.8-95-4531-95z M-4531-102c-1.7,0-3,1.3-3,3
				s1.3,3,3,3s3-1.3,3-3S-4529.3-102-4531-102z"/>
		</g>
	</g>
	<g id="Ellipse_907" transform="translate(356 26)">
		<g>
			<circle class="st0" cx="-4531" cy="-99" r="4"/>
		</g>
		<g>
			<path class="st1" d="M-4531-95c-2.2,0-4-1.8-4-4s1.8-4,4-4s4,1.8,4,4S-4528.8-95-4531-95z M-4531-102c-1.7,0-3,1.3-3,3s1.3,3,3,3
				s3-1.3,3-3S-4529.3-102-4531-102z"/>
		</g>
	</g>
</g>
</svg>
