<?xml version="1.0" encoding="utf-8"?>
<!-- Generator: Adobe Illustrator 21.1.0, SVG Export Plug-In . SVG Version: 6.00 Build 0)  -->
<svg version="1.1" id="Layer_1" xmlns="http://www.w3.org/2000/svg" xmlns:xlink="http://www.w3.org/1999/xlink" x="0px" y="0px"
	 viewBox="0 0 35.8 23.5" style="enable-background:new 0 0 35.8 23.5;" xml:space="preserve">
<style type="text/css">
	.st0{fill:#47C3CF;}
</style>
<g>
	<g>
		<path class="st0" d="M5.1,10.1C2.3,10.1,0,7.9,0,5.1S2.3,0,5.1,0s5.1,2.3,5.1,5.1S7.9,10.1,5.1,10.1z M5.1,1C2.8,1,1,2.8,1,5.1
			s1.8,4.1,4.1,4.1s4.1-1.8,4.1-4.1S7.3,1,5.1,1z"/>
	</g>
	<g>
		<path class="st0" d="M18.1,10.1c-2.8,0-5.1-2.3-5.1-5.1S15.3,0,18.1,0c2.8,0,5.1,2.3,5.1,5.1S20.9,10.1,18.1,10.1z M18.1,1
			C15.8,1,14,2.8,14,5.1s1.8,4.1,4.1,4.1s4.1-1.8,4.1-4.1S20.3,1,18.1,1z"/>
	</g>
	<g>
		<path class="st0" d="M30.8,10.1c-2.8,0-5.1-2.3-5.1-5.1S28,0,30.8,0s5.1,2.3,5.1,5.1S33.6,10.1,30.8,10.1z M30.8,1
			c-2.2,0-4.1,1.8-4.1,4.1s1.8,4.1,4.1,4.1s4.1-1.8,4.1-4.1S33,1,30.8,1z"/>
	</g>
	<g>
		<path class="st0" d="M5.1,23.5c-2.8,0-5.1-2.3-5.1-5.1s2.3-5.1,5.1-5.1s5.1,2.3,5.1,5.1S7.9,23.5,5.1,23.5z M5.1,14.4
			c-2.2,0-4.1,1.8-4.1,4.1s1.8,4.1,4.1,4.1s4.1-1.8,4.1-4.1S7.3,14.4,5.1,14.4z"/>
	</g>
	<g>
		<path class="st0" d="M18.1,23.5c-2.8,0-5.1-2.3-5.1-5.1s2.3-5.1,5.1-5.1c2.8,0,5.1,2.3,5.1,5.1S20.9,23.5,18.1,23.5z M18.1,14.4
			c-2.2,0-4.1,1.8-4.1,4.1s1.8,4.1,4.1,4.1s4.1-1.8,4.1-4.1S20.3,14.4,18.1,14.4z"/>
	</g>
	<g>
		<path class="st0" d="M30.8,23.5c-2.8,0-5.1-2.3-5.1-5.1s2.3-5.1,5.1-5.1s5.1,2.3,5.1,5.1S33.6,23.5,30.8,23.5z M30.8,14.4
			c-2.2,0-4.1,1.8-4.1,4.1s1.8,4.1,4.1,4.1s4.1-1.8,4.1-4.1S33,14.4,30.8,14.4z"/>
	</g>
</g>
</svg>
