<svg viewBox="-16618.879 -14484.026 116.029 30">
  <g data-name="Group 580">
    <g data-name="Group 487">
      <g data-name="Group 486">
        <path data-name="Path 454" class="cls-1" d="M-16586.952-14472.584c0-4.3-2.863-7.3-7.588-7.3h-7.159l1.575 4.3h4.725c2 0 3.436 1.145 3.436 3.007s-1.436 3.001-3.436 3.001h-2.434l4.724 12.313h4.868l-3.722-8.59c2.577-.573 5.011-2.721 5.011-6.731z"/>
        <path data-name="Path 455" class="cls-1" d="M-16578.505-14477.021c-1.288-2.577-4.724-2.863-5.584-2.863h-.286l1.718 4.868 1.428 3.865.286.859c.43 1.575 1 4.868-3.007 5.011h-5.579l2 4.3h6.156a5.229 5.229 0 0 1 4.868 3.436v.143a.5.5 0 0 0 .143.286h5.584z"/>
        <path data-name="Path 456" class="cls-1" d="M-16596.831-14460.984l-1.575-4.3h-7.444c-3.866-.143-3.436-3.293-3.007-5.011l.286-1 3.15-8.589h-.286c-1 0-4.3.286-5.44 2.577l-7.732 20.187h5.584l.143-.716a5.136 5.136 0 0 1 4.725-3.15h11.6z"/>
      </g>
    </g>
    <text 
      data-name="WORDS PICKER" 
      transform="translate(-16564.85 -14470.026)"
      font-size="14" font-family="HelveticaNeue-Bold,Helvetica Neue"
      font-weight="700" letter-spacing=".113em" 
      fill="#fff">
      <tspan x="0" y="0">WORDS</tspan><tspan x="0" y="13">PICKER</tspan>
    </text>
  </g>
</svg>
