<svg viewBox="0 0 35.8 23.5">
  <path fill="#46C3CF" d="M5.1 10.1c-2.8 0-5.1-2.2-5.1-5S2.3 0 5.1 0s5.1 2.3 5.1 5.1-2.3 5-5.1 5zm0-9.1C2.8 1 1 2.8 1 5.1s1.8 4.1 4.1 4.1 4.1-1.8 4.1-4.1S7.3 1 5.1 1zm13 9.1C15.3 10.1 13 7.8 13 5s2.3-5 5.1-5 5.1 2.3 5.1 5.1-2.3 5-5.1 5zm0-9.1C15.8 1 14 2.8 14 5.1s1.8 4.1 4.1 4.1 4.1-1.8 4.1-4.1S20.3 1 18.1 1zm12.7 9.1c-2.8 0-5.1-2.3-5.1-5.1s2.3-5 5.1-5 5.1 2.3 5.1 5.1-2.3 5-5.1 5zm0-9.1c-2.2 0-4.1 1.8-4.1 4.1s1.8 4.1 4.1 4.1 4.1-1.8 4.1-4.1S33 1 30.8 1zM5.1 23.5c-2.8 0-5.1-2.3-5.1-5.1s2.3-5.1 5.1-5.1 5.1 2.3 5.1 5.1-2.3 5.1-5.1 5.1zm0-9.1c-2.2 0-4.1 1.8-4.1 4.1s1.8 4.1 4.1 4.1 4.1-1.8 4.1-4.1-1.9-4.1-4.1-4.1zm13 9.1c-2.8 0-5.1-2.3-5.1-5.1s2.3-5.1 5.1-5.1 5.1 2.3 5.1 5.1-2.3 5.1-5.1 5.1zm0-9.1c-2.2 0-4.1 1.8-4.1 4.1s1.8 4.1 4.1 4.1 4.1-1.8 4.1-4.1-1.9-4.1-4.1-4.1zm12.7 9.1c-2.8 0-5.1-2.3-5.1-5.1s2.3-5.1 5.1-5.1 5.1 2.3 5.1 5.1-2.3 5.1-5.1 5.1zm0-9.1c-2.2 0-4.1 1.8-4.1 4.1s1.8 4.1 4.1 4.1 4.1-1.8 4.1-4.1-1.9-4.1-4.1-4.1z" class="st0"/>
</svg>