<svg xmlns="http://www.w3.org/2000/svg" viewBox="-14981.879 -18301.883 48.105 22.764"><defs><style>.a{fill:#fff;}</style></defs><g transform="translate(-14981.879 -18301.883)"><path class="a" d="M26.747,7.3c0-4.3-2.863-7.3-7.588-7.3H12l1.575,4.3H18.3c2,0,3.436,1.145,3.436,3.007S20.3,10.308,18.3,10.308H15.866L20.59,22.621h4.868l-3.722-8.59C24.313,13.458,26.747,11.31,26.747,7.3Z" transform="translate(5.18)"/><path class="a" d="M31.524,2.863C30.236.286,26.8,0,25.94,0h-.286l1.718,4.868h0L28.8,8.733h0l.286.859c.43,1.575,1,4.868-3.007,5.011H20.5l2,4.3h6.156a5.229,5.229,0,0,1,4.868,3.436v.143a.5.5,0,0,0,.143.286h5.584Z" transform="translate(8.85 0)"/><path class="a" d="M22.048,18.9l-1.575-4.3H13.029c-3.866-.143-3.436-3.293-3.007-5.011l.286-1L13.458,0h-.286c-1,0-4.3.286-5.44,2.577L0,22.764H5.584l.143-.716a5.136,5.136,0,0,1,4.725-3.15h11.6Z"/></g></svg>