<?xml version="1.0" encoding="utf-8"?>
<!-- Generator: Adobe Illustrator 22.0.1, SVG Export Plug-In . SVG Version: 6.00 Build 0)  -->
<svg version="1.1" id="Layer_1" xmlns="http://www.w3.org/2000/svg" xmlns:xlink="http://www.w3.org/1999/xlink" x="0px" y="0px"
	 viewBox="0 0 28 18" style="enable-background:new 0 0 28 18;" xml:space="preserve">
<style type="text/css">
	.st0{fill:#46C3CF;}
</style>
<title>headerIcon1</title>
<g>
	<path class="st0" d="M24.1,18c-2.2,0-3.9-1.8-3.9-4.1s1.8-4.1,3.9-4.1s3.9,1.8,3.9,4.1S26.2,18,24.1,18z M24.1,10.8
		c-1.6,0-2.9,1.4-2.9,3.1s1.3,3.1,2.9,3.1s2.9-1.4,2.9-3.1S25.7,10.8,24.1,10.8z"/>
</g>
<g>
	<path class="st0" d="M14.2,18c-2.2,0-3.9-1.8-3.9-4.1s1.8-4.1,3.9-4.1c2.2,0,3.9,1.8,3.9,4.1S16.4,18,14.2,18z M14.2,10.8
		c-1.6,0-2.9,1.4-2.9,3.1s1.3,3.1,2.9,3.1s2.9-1.4,2.9-3.1S15.9,10.8,14.2,10.8z"/>
</g>
<g>
	<path class="st0" d="M3.9,18C1.8,18,0,16.2,0,13.9s1.8-4.1,3.9-4.1s3.9,1.8,3.9,4.1S6.1,18,3.9,18z M3.9,10.8
		c-1.6,0-2.9,1.4-2.9,3.1S2.3,17,3.9,17s2.9-1.4,2.9-3.1S5.6,10.8,3.9,10.8z"/>
</g>
<g>
	<path class="st0" d="M3.9,8.2C1.8,8.2,0,6.4,0,4.1S1.8,0,3.9,0s3.9,1.8,3.9,4.1S6.1,8.2,3.9,8.2z M3.9,1C2.3,1,1,2.4,1,4.1
		s1.3,3.1,2.9,3.1s2.9-1.4,2.9-3.1S5.6,1,3.9,1z"/>
</g>
<g>
	<path class="st0" d="M24.1,8.2c-2.2,0-3.9-1.8-3.9-4.1S21.9,0,24.1,0S28,1.8,28,4.1S26.2,8.2,24.1,8.2z M24.1,1
		c-1.6,0-2.9,1.4-2.9,3.1s1.3,3.1,2.9,3.1S27,5.8,27,4.1S25.7,1,24.1,1z"/>
</g>
<g>
	<path class="st0" d="M14.2,8.2c-2.2,0-3.9-1.8-3.9-4.1S12.1,0,14.2,0s3.9,1.8,3.9,4.1S16.4,8.2,14.2,8.2z M14.2,1
		c-1.6,0-2.9,1.4-2.9,3.1s1.3,3.1,2.9,3.1s2.9-1.4,2.9-3.1S15.9,1,14.2,1z"/>
</g>
</svg>
