<svg id="da3658a0-5c41-4a7c-a028-03ab76b62900" data-name="Layer 1" xmlns="http://www.w3.org/2000/svg" viewBox="0 0 54.45 25.77"><title>logo</title><path d="M36.14,8.26C36.14,3.4,32.9,0,27.54,0h-8.1l1.79,4.86h5.35c2.26,0,3.89,1.3,3.89,3.4s-1.63,3.4-3.9,3.4H23.82L29.17,25.6h5.5l-4.2-9.72c2.91-.65,5.67-3.08,5.67-7.62Z" transform="translate(0)" fill="#fff"/><path d="M45.7,3.24C44.24.32,40.35,0,39.38,0h-.33l2,5.51,1.62,4.38.32,1c.49,1.78,1.14,5.5-3.4,5.67H33.22l2.27,4.86h7a5.92,5.92,0,0,1,5.5,3.9v.15a.59.59,0,0,0,.17.33h6.32ZM25,21.4l-1.78-4.87H14.74c-4.37-.16-3.89-3.73-3.4-5.67l.33-1.14L15.23,0h-.32C13.77,0,10,.32,8.75,2.92L0,25.77H6.32L6.48,25a5.8,5.8,0,0,1,5.35-3.57H25Z" transform="translate(0)" fill="#fff"/></svg>